M48
;Layer_Color=9474304
;FILE_FORMAT=2:5
INCH,TZ
;TYPE=PLATED
T1F00S00C0.01181
T2F00S00C0.02362
T3F00S00C0.02756
T4F00S00C0.02953
T5F00S00C0.03150
T6F00S00C0.03543
T7F00S00C0.03622
T8F00S00C0.03937
T10F00S00C0.04000
T12F00S00C0.04331
T13F00S00C0.04724
T14F00S00C0.04900
T16F00S00C0.09055
T17F00S00C0.09843
T18F00S00C0.11811
%
T01
X58000Y58000
X208000
X287000
X366000
X450000
X529000
X608000
X687000
X758000
Y103000
X695500Y129000
X657224Y175000
X638000Y185500
X626240Y189240
X608000Y153000
Y228000
X690000Y213000
X532500Y217500
X500000Y220000
X428000Y218000
X450000Y180500
Y155500
X444000Y153000
X434000Y157000
X454000Y148000
X464000Y143000
X474000Y128000
X484000Y133000
X494000Y138000
X525000Y160000
X552000Y185500
X529000Y100500
X424000Y161000
X353000Y163000
X358000Y168000
X363000Y173000
X368000Y178000
X366000Y95500
X287000Y129000
X288000Y238000
X278000Y233000
X258000Y228000
X188000
X193000Y220500
X208000Y185500
X165000Y190000
X129000Y208000
Y110500
X146740Y95020
X208000Y105500
X98000Y108000
X58000Y129000
Y208000
X97500Y238000
X88000Y243000
X92500Y302500
X100000Y295000
X107500Y287500
X58000Y287000
Y366000
X84500Y399000
X120500Y368000
X129000Y360500
X150500Y348000
X140000Y307500
X130000Y313000
X147500Y277500
X198000Y288000
X203000
X208000Y280500
X225500Y325500
X240500Y350500
X258000Y358000
X203000Y361000
X200500Y367000
X205500Y372000
X334000
X338000Y367000
X348000Y377000
X372500
X373000Y372000
X377618Y367000
X383000Y372000
X380000Y355000
X383000Y333759
X418000Y328000
X425000Y360000
X413000Y263000
X398000Y248000
X388000Y243000
X383000Y275500
X368000Y280500
X348000Y275500
X338000Y285500
X328000Y268000
X318000Y263000
X308000Y258000
X298000Y253000
X288000Y285500
X450000Y275500
X468000Y278000
X473000Y285500
X490000Y295000
X527500
X532500Y290000
X525000Y280000
X547500Y375000
X507500Y395000
X464500Y377000
X462000Y367000
X647500Y362500
X667500
X672500Y339000
X677500
X682500
X687500
X692500
X697500
Y333500
X692500
X687500
X682500
X677500
X672500
Y328000
Y323000
X677500
X682500
X687500
X692500
X697500
Y328000
X692500
X687500
X682500
X677500
Y317500
X672500
Y312000
X677500
X682500
X687500
X692500
X697500
Y317500
X692500
X687500
X682500
X697500Y292500
X687500Y275000
X657500
X619000Y285000
X722500Y347500
X758000Y366000
Y445000
Y506000
X679000Y529000
X662500Y525000
X635250Y513250
X635000Y492500
X647500Y440000
X648500Y432500
X654000Y428000
X690000Y550500
X537500Y537500
X562500Y482500
X475000
X395000Y512500
X360000Y497500
X365000Y465000
X370000Y455000
X372500Y416500
X377618
X312500Y457500
X305000Y495000
X280000Y542500
X250000Y512500
X213000Y506000
X215000Y460000
X262500
X265500Y450000
X165000
X129000Y445000
X134500Y480500
X124500Y493000
X129000Y506000
X140500Y522803
X147500Y527700
X134500Y542803
X164500Y512500
X154500Y488000
X107500Y442500
X58000Y445000
Y506000
Y585000
Y664000
X129000
X125000Y705000
X129000Y585000
X175500Y605500
X202500Y612500
X205500Y588000
X195500Y583000
X268000
Y605500
X208000Y664000
X287000
X310000Y705000
X362500
X373000Y664000
X413800Y600200
X335500Y587500
X293000Y585000
X285500Y588000
X448000Y585000
X500500
X505000Y650000
X529000Y664000
X481000Y636000
X450000Y664000
X573000Y590500
X608000Y585000
X652500
X722500Y587500
X680000Y672500
X667000Y669000
X608000Y664000
X758000Y822000
X722500Y837626
X718000Y843030
X710000
X705500Y848433
Y837626
X692500
X688000Y843030
X680000
X675500Y848433
Y837626
X692500Y848433
X722500
X702346Y823000
X647500Y822000
X627500Y820000
X595500Y822000
X587796Y798000
X608000Y743000
X642500Y742500
X687000Y743000
X622000Y714000
X529000Y743000
X450000
Y822000
X529000
X530500Y833000
X570296Y831500
X575700Y836100
Y844100
X570296Y848600
X581104
Y831500
Y818600
X575700Y814100
Y806100
X570300Y801600
X581104
X570296Y818600
X571750Y861750
X352500Y842500
X366000Y822000
Y743000
X287000
Y822000
X208000
Y743000
X130000Y750000
X127000Y822000
X58000
Y743000
Y893500
X129000
X208000
X287000
X366000
X450000
X529000
X608000
X687000
X702346Y870500
X758000Y893500
T02
X663102Y247921
X682000
X642500Y322500
X635000Y325000
X617500
X504000Y434000
X476000Y426500
X448000Y434000
X427500Y454500
X427500Y510500
X448000Y531000
X476000Y538500
X504000Y531000
X524500Y510500
X532000Y482500
X524789Y455000
X420000Y482500
T03
X125126Y868000
X133000
X140874
T04
X403000Y65500
X665000Y80000
X684000Y126740
X683000Y151720
X687500Y190000
X673000Y208000
X638000Y219299
X615000Y121740
X729260Y96760
X155000Y323000
X115000Y333000
X150500Y388000
X318000
X448000Y345000
X575000Y247500
X642500Y290260
X673000Y278000
X690760Y257000
X721760Y314240
X608740Y365000
X652500Y499049
X723000Y505000
Y435500
X492048Y458500
X451500Y465952
X459952Y506500
X500500Y499048
X394160Y549179
X300000Y405000
X480420Y567000
X699500Y570000
X723000
X699500Y693000
X460500Y775500
X388000Y734000
X280500Y753000
T05
X744614Y792134
Y800008
Y807882
Y815756
Y823630
Y831504
Y839378
Y847252
Y855126
Y863000
X658000
Y855126
Y847252
Y839378
Y831504
Y823630
Y815756
Y807882
Y800008
Y792134
X198591Y773000
X173000
X237000Y868000
X243000
X249000
T06
X301800Y83360
X311800
X321800
X331800
X341800
X351800
X361800
X371800
X573000Y80500
X583000
Y103000
Y128000
Y138000
Y165000
Y175000
Y185000
X573000
Y175000
Y165000
Y138000
Y128000
Y103000
X508000Y98000
Y88000
X388000
Y98000
X371800Y113360
X361800
X351800
X341800
X331800
X321800
X311800
X301800
X238000Y133000
Y143000
X228000
Y133000
X218000
Y143000
X188000Y153000
X178000
X168000
X158000
X148000
X138000
X128000
X118000
Y123000
X128000
X138000
X148000
X158000
X168000
X178000
X188000
X482500Y375000
X492500
X573000Y299000
X583000
X676279Y373433
X662500Y387213
X690059
X750500Y355500
Y345500
Y335500
Y325500
X743000Y483000
Y530500
X753000
X733000Y483000
X723000
X713000
X699000Y463000
Y453000
X689000
Y463000
X679000
X669000
X659000
Y453000
X669000
X679000
X649000
Y463000
X676279Y400992
X572500Y499049
X562500
X307000Y509500
Y519500
X271051Y522803
Y532803
Y542803
X298000Y433000
X308000
X318000
X260500
X250500
X240500
X230500
X220500
X210500
X190500
X180500
X170500
X160500
X150500
X140500
X130500
X120500
X261051Y522803
Y532803
Y542803
X104500Y623000
X94500
X84500
X114500
X124500
X134500
X144500
X154500
X164500
X174500
X190500
X200500
X210500
X220500
X230500
X240500
X250500
X260500
X298000
X308000
X573000Y658000
Y688000
X583000
X593000
X603000
Y658000
X593000
X583000
X753000Y745500
Y755500
X648000Y723000
X638000
Y713000
X648000
X603000
X593000
Y723000
X603000
X608000Y830000
X618000
X628000
X503000Y833000
X493000
Y823000
X503000
Y813000
X493000
Y803000
X503000
Y793000
X493000
Y783000
X503000
X493000Y763000
Y753000
Y723000
Y713000
X548000
Y723000
X558000
Y713000
X418000Y723000
X408000
X398000
X388000
Y753000
X398000
X408000
X418000
X84500Y742500
Y732500
T07
X706406Y238079
X714280
Y247921
X706406
T08
X428000Y198000
Y208000
X438000
X448000
Y198000
X438000
X418000
Y208000
X408000
X398000
X388000
X378000
X368000
X358000
X348000
X338000
X328000
X318000
X308000
X298000
X288000
X278000
Y198000
X288000
X298000
X308000
X318000
X328000
X338000
X348000
X358000
X368000
X378000
X388000
X398000
X408000
X268000
Y208000
X258000
X248000
X238000
X228000
X218000
X208000
Y198000
X218000
X228000
X238000
X248000
X258000
Y298000
X248000
X238000
X228000
X218000
X208000
Y308000
X218000
X228000
X238000
X248000
X258000
X268000
Y298000
X278000
X288000
X298000
X308000
X318000
X328000
X338000
X348000
X358000
X368000
X378000
X388000
X398000
X408000
X418000
Y308000
X408000
X398000
X388000
X378000
X368000
X358000
X348000
X338000
X328000
X318000
X308000
X298000
X288000
X278000
X428000
Y298000
X438000
X448000
Y308000
X438000
T10
X73000Y118000
Y128000
Y138000
Y148000
Y173000
Y183000
Y193000
Y203000
Y228000
Y238000
Y248000
Y258000
Y283000
Y293000
Y303000
Y313000
Y323000
Y333000
Y358000
Y368000
Y378000
Y388000
X743000Y540500
Y550500
X753000
Y540500
X723000Y650500
Y660500
Y670500
Y680500
X743000Y675500
Y665500
X753000
Y675500
Y685500
X743000
Y695500
X753000
Y705500
X743000
Y620500
X753000
Y610500
X743000
Y600500
X753000
Y590500
X743000
Y580500
X753000
Y570500
X743000
Y560500
X753000
X632000Y753000
Y763000
Y773000
Y783000
Y793000
X633000Y860500
X623000
X613000
X603000
X552000Y793000
Y783000
Y773000
Y763000
Y753000
X84500Y768000
Y778000
Y788000
Y798000
X178000Y868000
X188000
X198000
X500500Y870500
X510500
X520500
X530500
X543000
X553000
X563000
X573000
X603000
X613000
X623000
X633000
T12
X573000Y570500
X582843
X573000Y627587
X592685
Y570500
T13
X448000Y724910
Y766091
T14
X325300Y529700
X364700Y539500
Y519800
X365200Y590300
Y610000
X383300Y600200
X422700Y610000
Y590300
X325800Y600200
X440800
X480200Y610000
Y590300
X498300Y600200
X537700Y610000
Y590300
T16
X724949Y219299
Y266701
T17
X724594Y139634
Y191366
T18
X68000Y68000
X538000Y80500
X748000Y68000
X745500Y90500
X631500
X585000Y225000
X702500Y205000
X420500Y238000
X409000Y113000
X245500Y95500
X120500Y190500
X153000Y295500
X450000Y395000
X745500Y455500
X631500
X698000Y533000
X582500Y520000
X362500Y477500
X100500Y475500
X79193Y688410
X185000Y705000
X222500Y560000
X380500Y653000
X449665Y688410
X533000Y650500
X655500Y640500
X670000Y752500
X258000Y770500
X125000Y775000
X79193Y879551
X287500Y880000
X407500
X449665Y879551
X748000Y883000
M30
