%FSLAX25Y25*%
%MOIN*%
G70*
G01*
G75*
G04 Layer_Color=8421504*
%ADD10R,0.05906X0.05118*%
%ADD11R,0.05118X0.07874*%
%ADD12R,0.05118X0.05906*%
%ADD13R,0.07284X0.13780*%
%ADD14R,0.12047X0.03504*%
%ADD15R,0.33622X0.21063*%
%ADD16R,0.05906X0.08661*%
%ADD17R,0.07874X0.05118*%
G04:AMPARAMS|DCode=18|XSize=35.43mil|YSize=59.06mil|CornerRadius=0mil|HoleSize=0mil|Usage=FLASHONLY|Rotation=150.000|XOffset=0mil|YOffset=0mil|HoleType=Round|Shape=Round|*
%AMOVALD18*
21,1,0.02362,0.03543,0.00000,0.00000,240.0*
1,1,0.03543,0.00591,0.01023*
1,1,0.03543,-0.00591,-0.01023*
%
%ADD18OVALD18*%

G04:AMPARAMS|DCode=19|XSize=35.43mil|YSize=59.06mil|CornerRadius=0mil|HoleSize=0mil|Usage=FLASHONLY|Rotation=120.000|XOffset=0mil|YOffset=0mil|HoleType=Round|Shape=Round|*
%AMOVALD19*
21,1,0.02362,0.03543,0.00000,0.00000,210.0*
1,1,0.03543,0.01023,0.00591*
1,1,0.03543,-0.01023,-0.00591*
%
%ADD19OVALD19*%

G04:AMPARAMS|DCode=20|XSize=35.43mil|YSize=59.06mil|CornerRadius=0mil|HoleSize=0mil|Usage=FLASHONLY|Rotation=30.000|XOffset=0mil|YOffset=0mil|HoleType=Round|Shape=Round|*
%AMOVALD20*
21,1,0.02362,0.03543,0.00000,0.00000,120.0*
1,1,0.03543,0.00591,-0.01023*
1,1,0.03543,-0.00591,0.01023*
%
%ADD20OVALD20*%

G04:AMPARAMS|DCode=21|XSize=35.43mil|YSize=59.06mil|CornerRadius=0mil|HoleSize=0mil|Usage=FLASHONLY|Rotation=60.000|XOffset=0mil|YOffset=0mil|HoleType=Round|Shape=Round|*
%AMOVALD21*
21,1,0.02362,0.03543,0.00000,0.00000,150.0*
1,1,0.03543,0.01023,-0.00591*
1,1,0.03543,-0.01023,0.00591*
%
%ADD21OVALD21*%

%ADD22O,0.05906X0.03543*%
%ADD23O,0.03543X0.05906*%
%ADD24R,0.06600X0.13700*%
%ADD25R,0.11811X0.04409*%
%ADD26R,0.08012X0.05906*%
%ADD27R,0.05906X0.08012*%
%ADD28R,0.04331X0.04724*%
%ADD29R,0.04724X0.04331*%
%ADD30R,0.05906X0.02362*%
%ADD31R,0.03347X0.01969*%
%ADD32R,0.13780X0.07284*%
%ADD33O,0.01417X0.04961*%
%ADD34O,0.02756X0.05118*%
%ADD35C,0.01000*%
%ADD36C,0.03543*%
%ADD37C,0.03937*%
%ADD38C,0.03504*%
%ADD39C,0.02756*%
%ADD40C,0.01969*%
%ADD41C,0.01417*%
%ADD42R,0.05906X0.05906*%
%ADD43C,0.05906*%
%ADD44R,0.05906X0.05906*%
%ADD45C,0.05906*%
%ADD46C,0.06693*%
G04:AMPARAMS|DCode=47|XSize=66.93mil|YSize=66.93mil|CornerRadius=0mil|HoleSize=0mil|Usage=FLASHONLY|Rotation=180.000|XOffset=0mil|YOffset=0mil|HoleType=Round|Shape=Octagon|*
%AMOCTAGOND47*
4,1,8,-0.03347,0.01673,-0.03347,-0.01673,-0.01673,-0.03347,0.01673,-0.03347,0.03347,-0.01673,0.03347,0.01673,0.01673,0.03347,-0.01673,0.03347,-0.03347,0.01673,0.0*
%
%ADD47OCTAGOND47*%

%ADD48C,0.07087*%
%ADD49C,0.15748*%
%ADD50C,0.14961*%
%ADD51C,0.06299*%
%ADD52R,0.06299X0.06299*%
%ADD53C,0.07874*%
%ADD54R,0.07874X0.07874*%
%ADD55R,0.05906X0.05906*%
%ADD56R,0.11811X0.12205*%
%ADD57O,0.08000X0.15748*%
%ADD58C,0.09803*%
%ADD59R,0.23622X0.07874*%
%ADD60R,0.07874X0.23622*%
%ADD61C,0.04724*%
%ADD62C,0.05512*%
%ADD63C,0.07480*%
%ADD64O,0.03937X0.07874*%
%ADD65O,0.03937X0.07874*%
%ADD66C,0.11811*%
%ADD67C,0.02362*%
%ADD68C,0.00984*%
%ADD69C,0.00787*%
%ADD70C,0.02362*%
%ADD71C,0.00394*%
%ADD72C,0.00800*%
%ADD73C,0.02000*%
%ADD74C,0.00591*%
%ADD75C,0.00100*%
%ADD76C,0.01181*%
%ADD77C,0.01575*%
%ADD78R,0.11024X0.03150*%
%ADD79R,0.09000X0.09000*%
%ADD80R,0.10669X0.10138*%
D10*
X482500Y398740D02*
D03*
Y391260D02*
D03*
X460500Y486240D02*
D03*
Y478760D02*
D03*
X442500Y486240D02*
D03*
Y478760D02*
D03*
X509500D02*
D03*
Y486240D02*
D03*
X424000Y95740D02*
D03*
X434000D02*
D03*
X444000D02*
D03*
X454000D02*
D03*
X464000D02*
D03*
X474000D02*
D03*
X484000D02*
D03*
X494000D02*
D03*
X683000Y96760D02*
D03*
Y104240D02*
D03*
X693000Y96760D02*
D03*
Y104240D02*
D03*
X703000Y96760D02*
D03*
Y104240D02*
D03*
X140500Y374240D02*
D03*
Y366760D02*
D03*
X150500Y374240D02*
D03*
Y366760D02*
D03*
X723000Y629260D02*
D03*
Y636740D02*
D03*
X424000Y116740D02*
D03*
Y109260D02*
D03*
X434000Y116740D02*
D03*
Y109260D02*
D03*
X444000Y116740D02*
D03*
Y109260D02*
D03*
X454000Y116740D02*
D03*
Y109260D02*
D03*
X464000Y116740D02*
D03*
Y109260D02*
D03*
X474000Y116740D02*
D03*
Y109260D02*
D03*
X484000Y116740D02*
D03*
Y109260D02*
D03*
X494000Y116740D02*
D03*
Y109260D02*
D03*
X713000Y629260D02*
D03*
Y636740D02*
D03*
X602700Y556800D02*
D03*
Y549320D02*
D03*
X563000Y556740D02*
D03*
Y549260D02*
D03*
X628000Y627600D02*
D03*
Y620120D02*
D03*
X655000Y290260D02*
D03*
Y297740D02*
D03*
X307000Y530760D02*
D03*
Y538240D02*
D03*
X665000Y290260D02*
D03*
Y297740D02*
D03*
X105268Y141740D02*
D03*
Y134260D02*
D03*
X592700Y556800D02*
D03*
Y549320D02*
D03*
X573000Y556740D02*
D03*
Y549260D02*
D03*
X618000Y627600D02*
D03*
Y620120D02*
D03*
X358000Y734260D02*
D03*
Y741740D02*
D03*
X433000D02*
D03*
Y734260D02*
D03*
X673000Y179260D02*
D03*
Y186740D02*
D03*
X395000Y412500D02*
D03*
Y405020D02*
D03*
X451500Y486240D02*
D03*
Y478760D02*
D03*
X500500D02*
D03*
Y486240D02*
D03*
X491500Y478760D02*
D03*
Y486240D02*
D03*
X140000Y323760D02*
D03*
Y331240D02*
D03*
X130000Y323760D02*
D03*
Y331240D02*
D03*
D11*
X595000Y354500D02*
D03*
Y365000D02*
D03*
X663102Y208000D02*
D03*
Y218500D02*
D03*
X575000Y264835D02*
D03*
Y275335D02*
D03*
D12*
X601260Y335500D02*
D03*
X608740D02*
D03*
X608740Y315000D02*
D03*
X601260D02*
D03*
X601260Y325000D02*
D03*
X608740D02*
D03*
X633740Y297740D02*
D03*
X626260D02*
D03*
X633740Y315500D02*
D03*
X626260D02*
D03*
X633740Y355000D02*
D03*
X626260D02*
D03*
X626260Y345000D02*
D03*
X633740D02*
D03*
X479740Y515500D02*
D03*
X472260D02*
D03*
Y467500D02*
D03*
X479740D02*
D03*
X472260Y449500D02*
D03*
X479740D02*
D03*
X749240Y300500D02*
D03*
Y288000D02*
D03*
X739260Y118000D02*
D03*
X626260Y335500D02*
D03*
X633740D02*
D03*
X721760Y300500D02*
D03*
X729240D02*
D03*
X604740Y138000D02*
D03*
X597260D02*
D03*
X146740Y108000D02*
D03*
X139260D02*
D03*
X462740Y596000D02*
D03*
X455260D02*
D03*
X501740Y567000D02*
D03*
X494260D02*
D03*
X404240Y600200D02*
D03*
X396760D02*
D03*
X249240Y848000D02*
D03*
X241760D02*
D03*
X721760Y288000D02*
D03*
X729240D02*
D03*
X506760Y185500D02*
D03*
X514240D02*
D03*
X506760Y175500D02*
D03*
X514240D02*
D03*
X179260Y165500D02*
D03*
X186740D02*
D03*
X188000Y108000D02*
D03*
X180520D02*
D03*
X184240Y138000D02*
D03*
X176760D02*
D03*
X156740D02*
D03*
X149260D02*
D03*
X462740Y605000D02*
D03*
X455260D02*
D03*
X141740Y850500D02*
D03*
X134260D02*
D03*
X479740Y506500D02*
D03*
X472260D02*
D03*
X479740Y497500D02*
D03*
X472260D02*
D03*
Y458500D02*
D03*
X479740D02*
D03*
D13*
X600000Y254665D02*
D03*
Y275335D02*
D03*
X633740Y254665D02*
D03*
Y275335D02*
D03*
X408000Y790835D02*
D03*
Y770165D02*
D03*
X635000Y398335D02*
D03*
Y377665D02*
D03*
D14*
X655000Y340500D02*
D03*
Y335500D02*
D03*
Y330500D02*
D03*
Y325500D02*
D03*
Y320500D02*
D03*
Y315500D02*
D03*
Y310500D02*
D03*
D16*
X610000Y394102D02*
D03*
Y381898D02*
D03*
X595000Y394102D02*
D03*
Y381898D02*
D03*
X337500Y405138D02*
D03*
Y417343D02*
D03*
X352500Y405138D02*
D03*
Y417343D02*
D03*
D17*
X635500Y121740D02*
D03*
X646000D02*
D03*
X699500Y705500D02*
D03*
X710000D02*
D03*
D18*
X493355Y525554D02*
D03*
X504606Y519058D02*
D03*
X503394Y542942D02*
D03*
X514645Y536446D02*
D03*
X458645Y439446D02*
D03*
X447394Y445942D02*
D03*
X448606Y422058D02*
D03*
X437355Y428554D02*
D03*
D19*
X512558Y511106D02*
D03*
X519054Y499855D02*
D03*
X529946Y521145D02*
D03*
X536442Y509894D02*
D03*
X439442Y453894D02*
D03*
X432946Y465145D02*
D03*
X422054Y443855D02*
D03*
X415558Y455106D02*
D03*
D20*
X504606Y445942D02*
D03*
X493355Y439446D02*
D03*
X514645Y428554D02*
D03*
X503394Y422058D02*
D03*
X447394Y519058D02*
D03*
X458645Y525554D02*
D03*
X437355Y536446D02*
D03*
X448606Y542942D02*
D03*
D21*
X519054Y465145D02*
D03*
X512558Y453894D02*
D03*
X536442Y455106D02*
D03*
X529946Y443855D02*
D03*
X432946Y499855D02*
D03*
X439442Y511106D02*
D03*
X415558Y509894D02*
D03*
X422054Y521145D02*
D03*
D22*
X521961Y488996D02*
D03*
Y476004D02*
D03*
X542039Y488996D02*
D03*
Y476004D02*
D03*
X430039Y476004D02*
D03*
Y488996D02*
D03*
X409961Y476004D02*
D03*
Y488996D02*
D03*
D23*
X469504Y528461D02*
D03*
X482496D02*
D03*
X469504Y548539D02*
D03*
X482496D02*
D03*
Y436539D02*
D03*
X469504D02*
D03*
X482496Y416461D02*
D03*
X469504D02*
D03*
D24*
X172268Y57819D02*
D03*
X161268D02*
D03*
X128268D02*
D03*
X139268D02*
D03*
X150268D02*
D03*
D25*
X710500Y151720D02*
D03*
Y161563D02*
D03*
Y169437D02*
D03*
Y179280D02*
D03*
D26*
X740560Y300500D02*
D03*
Y288000D02*
D03*
X747940Y118000D02*
D03*
D27*
X424000Y87060D02*
D03*
X434000D02*
D03*
X444000D02*
D03*
X454000D02*
D03*
X464000D02*
D03*
X474000D02*
D03*
X484000D02*
D03*
X494000D02*
D03*
D28*
X695654Y830933D02*
D03*
X702346D02*
D03*
X695654Y855126D02*
D03*
X702346D02*
D03*
X563604Y806100D02*
D03*
X570296D02*
D03*
X563604Y844100D02*
D03*
X570296D02*
D03*
X587796Y806100D02*
D03*
X581104D02*
D03*
X587796Y844100D02*
D03*
X581104D02*
D03*
X563604Y814100D02*
D03*
X570296D02*
D03*
X563604Y836100D02*
D03*
X570296D02*
D03*
X587796Y814100D02*
D03*
X581104D02*
D03*
X587796Y836100D02*
D03*
X581104D02*
D03*
D29*
X563604Y828446D02*
D03*
Y821754D02*
D03*
X587796Y828446D02*
D03*
Y821754D02*
D03*
X718000Y830933D02*
D03*
Y837626D02*
D03*
X680000Y830933D02*
D03*
Y837626D02*
D03*
X718000Y855126D02*
D03*
Y848433D02*
D03*
X680000Y855126D02*
D03*
Y848433D02*
D03*
X710000Y830933D02*
D03*
Y837626D02*
D03*
X688000Y830933D02*
D03*
Y837626D02*
D03*
X710000Y855126D02*
D03*
Y848433D02*
D03*
X688000Y855126D02*
D03*
Y848433D02*
D03*
D30*
X647776Y181760D02*
D03*
Y185500D02*
D03*
Y189240D02*
D03*
X657224D02*
D03*
Y185500D02*
D03*
Y181760D02*
D03*
D31*
X663197Y121740D02*
D03*
X672803Y114260D02*
D03*
X663197Y118000D02*
D03*
Y114260D02*
D03*
X672803Y121740D02*
D03*
D32*
X655835Y150500D02*
D03*
X635165D02*
D03*
D33*
X380177Y422657D02*
D03*
X377618D02*
D03*
X375059D02*
D03*
X372500D02*
D03*
X369941D02*
D03*
X367382D02*
D03*
X364823D02*
D03*
X380177Y399823D02*
D03*
X377618D02*
D03*
X375059D02*
D03*
X372500D02*
D03*
X369941D02*
D03*
X367382D02*
D03*
X364823D02*
D03*
D34*
X416831Y417047D02*
D03*
X412500D02*
D03*
X408169D02*
D03*
X416831Y405433D02*
D03*
X412500D02*
D03*
X408169D02*
D03*
D80*
X695217Y320037D02*
D03*
Y330963D02*
D03*
X672303D02*
D03*
Y320037D02*
D03*
X683760Y330963D02*
D03*
Y320037D02*
D03*
M02*
