M48
;Layer_Color=9474304
;FILE_FORMAT=2:5
INCH,TZ
;TYPE=PLATED
T9F00S00C0.03937
T11F00S00C0.04000
%
G90
G05
T09
G00X711090Y392724
M15
G01Y381701
M16
G00X734713Y392724
M15
G01Y381701
M16
G00X728216Y406504
M15
G01X717193
M16
T11
G00X345000Y506341
M15
G01Y513659
M16
G00X345000Y545741
M15
G01Y553059
M16
G00X345500Y576840
M15
G01Y584160
M16
G00X345500Y616241
M15
G01Y623560
M16
G00X403000Y616241
M15
G01Y623560
M16
G00X403000Y576840
M15
G01Y584160
M16
G00X460500Y576840
M15
G01Y584160
M16
G00X460500Y616241
M15
G01Y623560
M16
G00X518000Y616241
M15
G01Y623560
M16
G00X518000Y576840
M15
G01Y584160
M16
M17
M30
